<svg width="208" height="249" viewBox="0 0 208 249" fill="none" xmlns="http://www.w3.org/2000/svg">
<path d="M82.2 153.2H79.8C74.6 153.2 71.2667 154.133 69.8 156C68.4667 157.867 67.8 160.867 67.8 165V168C68.6 167.6 69.2667 167.067 69.8 166.4L85.4 182C84.6 188.267 82.3333 193 78.6 196.2C74.8667 199.4 70.4667 201 65.4 201C60.3333 201 55.1333 199.2 49.8 195.6C44.4667 199.2 39.2667 201 34.2 201C27 201 20.4 197.6 14.4 190.8C8.4 184.133 4.93333 177.2 4 170L9.6 166.4C10.2667 167.6 11.7333 168.2 14 168.2C16.2667 168.2 18 167.333 19.2 165.6C20.5333 163.733 21.2667 161.933 21.4 160.2C21.6667 158.467 21.8 156.133 21.8 153.2H19.6L9.6 141.2V126.6C15.0667 126.6 18.9333 126.8 21.2 127.2V89.2H19.6L9.6 77.2V49H66.4L76.4 61V85.4L81.4 79.6L78.2 77.2V49H130.2L140.2 61V89.2H129.8L99.8 124.2L104.4 129.2C111.733 130.933 117.4 135.267 121.4 142.2C125.4 149 127.4 156.667 127.4 165.2V168C128.333 167.6 129.067 167.067 129.6 166.4L135 170L145 182C144.333 188.667 141.867 193.467 137.6 196.4C133.333 199.467 126.667 201 117.6 201C108.533 201 100.333 197.067 93 189.2C85.8 181.467 82.2 171.533 82.2 159.4V153.2ZM32.4 133.2C33.7333 132.4 35.3333 130.8 37.2 128.4H42.4C44.1333 130.8 45.8 132.4 47.4 133.2C50.3333 129.333 54.5333 127.2 60 126.8C62 126.667 65.2667 126.6 69.8 126.6C74.4667 126.6 77.8667 126.667 80 126.8C85.7333 127.2 90.0667 129.333 93 133.2C94.2 132.667 95.6 131.4 97.2 129.4L81.6 113.2L117 71.6H124.6V54.6H83.6V71.6H95.4L59.8 112.8H52.4V71.6H60.8V54.6H15.2V71.6H27.2V128.8C29.2 129.867 30.9333 131.333 32.4 133.2ZM64.8 131.4C62.4 131.4 60.5333 131.533 59.2 131.8C58 131.933 56.4 132.733 54.4 134.2C52.4 135.667 50.6 137.867 49 140.8C45.6667 140.133 42.6 137.8 39.8 133.8C37 137.4 33.9333 139.733 30.6 140.8C29 137.867 27.2 135.667 25.2 134.2C23.2 132.733 21.5333 131.933 20.2 131.8C19 131.533 17.2667 131.4 15 131.4V136.4C23.5333 136.4 27.8 142 27.8 153.2C27.8 157.333 27.5333 160.733 27 163.4C26.6 165.933 25.3333 168.333 23.2 170.6C21.0667 172.733 18 173.8 14 173.8L11 173C13.6667 179.667 17.8667 183 23.6 183C29.3333 183 34.5333 180.933 39.2 176.8H40.4C45.0667 180.933 50.2 183 55.8 183C61.5333 183 65.8667 179.667 68.8 173C68.1333 173.533 66.6667 173.8 64.4 173.8C62.1333 173.8 60 173.267 58 172.2C56.1333 171 54.8 169.333 54 167.2C52.6667 163.6 52 158.933 52 153.2C52 142 56.2667 136.4 64.8 136.4H75.2C83.8667 136.4 88.2 142 88.2 153.2V158.4C88.2 174.8 95.1333 183 109 183C116.067 183 121 181.8 123.8 179.4C126.467 177.267 128 175.133 128.4 173C127.6 173.533 126.6 173.8 125.4 173.8C119.933 173.8 116.333 171.933 114.6 168.2C112.867 164.467 112 159.2 112 152.4C112 142.533 108.067 136.333 100.2 133.8C97.6667 137.4 94.7333 139.733 91.4 140.8C89.6667 137.867 87.8 135.667 85.8 134.2C83.8 132.733 82.1333 131.933 80.8 131.8C79.4667 131.533 77.6 131.4 75.2 131.4H64.8Z" fill="#F8763A"/>
<path d="M208 159.625C208 163.143 205.207 166.383 200.5 169C194.816 172.145 186.359 174.371 176.613 175.035C175.91 174.703 175.168 174.371 174.426 174.059C166.711 170.836 156.477 169 145.5 169C143.879 169 142.297 169.039 140.715 169.117L140.5 169C135.793 166.383 133 163.143 133 159.625C133 150.996 149.621 144 170.5 144C191.203 144 208 150.996 208 159.625ZM139.387 175.465C141.379 175.328 143.41 175.25 145.5 175.25C157.648 175.25 168.43 177.652 175.285 181.383C180.129 184.02 183 187.301 183 190.875C183 191.48 182.863 192.418 182.59 193.16C181.691 195.738 179.113 198.102 175.754 200.113C175.734 200.113 175.695 200.133 175.676 200.152C175.617 200.191 175.559 200.211 175.5 200.25C168.664 204.039 157.766 206.5 145.5 206.5C133.859 206.5 123.441 204.293 116.562 200.816C116.197 200.621 115.842 200.27 115.498 200.25C110.789 197.633 108 194.391 108 190.875C108 184.078 118.436 178.277 133 176.148C135.051 175.836 137.18 175.602 139.387 175.465ZM184.543 180.445C190.07 179.586 195.129 178.219 199.426 176.441C202.609 175.113 205.559 173.473 208 171.461V178.375C208 182.145 204.777 185.621 199.445 188.316C196.574 189.762 193.117 190.973 189.211 191.91C189.23 191.578 189.25 191.227 189.25 190.875C189.25 186.598 187.18 183.082 184.543 180.445ZM183 209.625C183 213.141 180.207 216.383 175.5 219C175.148 219.02 174.797 219.371 174.445 219.566C167.551 223.043 157.141 225.25 145.5 225.25C133.234 225.25 122.34 222.789 115.498 219C110.789 216.383 108 213.141 108 209.625V202.711C110.432 204.723 113.395 206.363 116.58 207.691C124.297 210.914 134.523 212.75 145.5 212.75C156.477 212.75 166.711 210.914 174.426 207.691C175.949 207.066 177.414 206.344 178.801 205.563C179.992 204.898 181.105 204.156 182.16 203.375C182.453 203.16 182.727 202.926 183 202.711V209.625ZM189.25 198.316C192.785 197.34 196.379 196.461 199.426 195.191C202.609 193.863 205.559 192.223 208 190.211V197.125C208 199.176 207.023 201.227 205.09 203.16C201.906 206.344 196.301 208.961 189.211 210.66C189.23 210.328 189.25 209.977 189.25 209.625V198.316ZM145.5 231.5C156.477 231.5 166.711 229.664 174.426 226.441C177.609 225.113 180.559 223.473 183 221.461V228.375C183 237.008 166.203 244 145.5 244C124.789 244 108 237.008 108 228.375V221.461C110.432 223.473 113.395 225.113 116.58 226.441C124.297 229.664 134.523 231.5 145.5 231.5Z" fill="#F9C80E"/>
</svg>
